  <svg
    width="24"
    height="24"
    viewBox="0 0 24 24"
    fill="none"
    xmlns="http://www.w3.org/2000/svg"
  >
    <path
      d="M14.4 9.60001V24H2.4C1.76348 24 1.15303 23.7471 0.702944 23.2971C0.252856 22.847 0 22.2365 0 21.6V9.60001H14.4Z"
      fill="white"
    />
    <path
      d="M24 9.60001V21.6C24 22.2365 23.7472 22.847 23.2971 23.2971C22.847 23.7471 22.2366 24 21.6 24H16.8V9.60001H24Z"
      fill="white"
    />
    <path
      d="M24 2.4V7.2H0V2.4C0 1.76348 0.252856 1.15303 0.702944 0.702944C1.15303 0.252856 1.76348 0 2.4 0H21.6C22.2365 0 22.847 0.252856 23.2971 0.702944C23.7471 1.15303 24 1.76348 24 2.4Z"
      fill="white"
    />
  </svg>