  <svg
    width="16"
    height="18"
    viewBox="0 0 16 18"
    fill="none"
    xmlns="http://www.w3.org/2000/svg"
  >
    <g clip-path="url(#clip0_155_672)">
      <path
        fill-rule="evenodd"
        clip-rule="evenodd"
        d="M5.93225 9.45996C5.71364 9.45996 5.53696 9.25342 5.53696 9C5.53696 8.74512 5.71364 8.54004 5.93225 8.54004H11.1563C11.3749 8.54004 11.5516 8.74658 11.5516 9C11.5516 9.25488 11.3749 9.45996 11.1563 9.45996H5.93225ZM7.00281 17.0771C7.26334 17.0771 7.47445 17.2837 7.47445 17.5386C7.47445 17.7935 7.26334 18 7.00281 18H1.09751C0.795059 18 0.521056 17.8799 0.321917 17.6851C0.122777 17.4902 0 17.2222 0 16.9263V1.07373C0 0.777832 0.122777 0.509766 0.321917 0.314941C0.521056 0.120117 0.795059 0 1.09751 0H14.5761C14.8785 0 15.1525 0.121582 15.3517 0.314941C15.5508 0.509766 15.6736 0.777832 15.6736 1.07373V8.41846C15.6736 8.67334 15.4625 8.87988 15.2019 8.87988C14.9414 8.87988 14.7303 8.67334 14.7303 8.41846V1.07373C14.7303 1.03271 14.7123 0.994629 14.6839 0.968262C14.6554 0.94043 14.618 0.922852 14.5761 0.922852H1.09751C1.05559 0.922852 1.01666 0.94043 0.988209 0.966797C0.961258 0.996094 0.94329 1.03271 0.94329 1.07373V16.9248C0.94329 16.9658 0.961258 17.0039 0.988209 17.0303C1.01666 17.0581 1.05559 17.0757 1.09751 17.0757H7.00281V17.0771ZM14.7782 10.8896C14.7019 10.8179 14.6135 10.7842 14.5117 10.7856C14.4099 10.7871 14.323 10.8252 14.2512 10.8999L13.6657 11.4961L15.3083 13.0474L15.8997 12.4453C15.9701 12.375 16 12.2842 15.9985 12.1846C15.997 12.0864 15.9611 11.9971 15.8892 11.9297L14.7782 10.8896ZM11.7103 16.7007C11.4932 16.7681 11.2776 16.8384 11.0619 16.9072C10.8448 16.9775 10.6292 17.0493 10.4136 17.1196C9.90305 17.2837 9.61707 17.3745 9.55718 17.3906C9.49878 17.4082 9.53322 17.1738 9.66199 16.686L10.0678 15.1553L13.1447 12.0234L14.7857 13.5688L11.7103 16.7007ZM5.93225 12.7368C5.71364 12.7368 5.53547 12.5273 5.53547 12.2695C5.53547 12.0117 5.71364 11.8022 5.93225 11.8022H8.50608C8.72469 11.8022 8.90286 12.0117 8.90286 12.2695C8.90286 12.5273 8.72469 12.7368 8.50608 12.7368H5.93225ZM5.93225 6.19043C5.71364 6.19043 5.53696 5.98389 5.53696 5.73047C5.53696 5.47559 5.71364 5.27051 5.93225 5.27051H11.1563C11.3749 5.27051 11.5516 5.47705 11.5516 5.73047C11.5516 5.98535 11.3749 6.19043 11.1563 6.19043H5.93225ZM3.66536 11.6396C3.9738 11.6396 4.22235 11.8843 4.22235 12.1846C4.22235 12.4863 3.9723 12.7295 3.66536 12.7295C3.35692 12.7295 3.10837 12.4849 3.10837 12.1846C3.10837 11.8843 3.35841 11.6396 3.66536 11.6396ZM3.66536 8.41406C3.9738 8.41406 4.22235 8.65869 4.22235 8.95898C4.22235 9.26074 3.9723 9.50391 3.66536 9.50391C3.35692 9.50391 3.10837 9.25928 3.10837 8.95898C3.10837 8.65869 3.35841 8.41406 3.66536 8.41406ZM3.66536 5.18848C3.9738 5.18848 4.22235 5.43311 4.22235 5.7334C4.22235 6.03516 3.9723 6.27832 3.66536 6.27832C3.35692 6.27832 3.10837 6.03369 3.10837 5.7334C3.10837 5.43164 3.35841 5.18848 3.66536 5.18848Z"
        fill="black"
      />
    </g>
    <defs>
      <clipPath id="clip0_155_672">
        <rect width="16" height="18" fill="white" />
      </clipPath>
    </defs>
  </svg>